<svg xmlns="http://www.w3.org/2000/svg" viewBox="0 0 100 100">
  <defs>
    <linearGradient id="gradient1" x1="0%" y1="0%" x2="100%" y2="100%">
      <stop offset="0%" style="stop-color:#FF6B35;stop-opacity:1" />
      <stop offset="50%" style="stop-color:#FE938C;stop-opacity:1" />
      <stop offset="100%" style="stop-color:#9B59B6;stop-opacity:1" />
    </linearGradient>
  </defs>
  
  <!-- Fondo circular con gradiente -->
  <circle cx="50" cy="50" r="48" fill="url(#gradient1)" />
  
  <!-- Castillo simplificado -->
  <!-- Base del castillo -->
  <rect x="25" y="55" width="50" height="30" fill="white" opacity="0.95" rx="2" />
  
  <!-- Torres -->
  <rect x="20" y="35" width="12" height="35" fill="white" opacity="0.95" rx="2" />
  <rect x="68" y="35" width="12" height="35" fill="white" opacity="0.95" rx="2" />
  
  <!-- Merlones (almenas) de las torres -->
  <rect x="20" y="30" width="4" height="8" fill="white" opacity="0.95" />
  <rect x="28" y="30" width="4" height="8" fill="white" opacity="0.95" />
  <rect x="68" y="30" width="4" height="8" fill="white" opacity="0.95" />
  <rect x="76" y="30" width="4" height="8" fill="white" opacity="0.95" />
  
  <!-- Puerta -->
  <path d="M 43 70 Q 43 60 50 60 Q 57 60 57 70 Z" fill="#FF6B35" />
  
  <!-- Ventanas -->
  <circle cx="26" cy="50" r="2.5" fill="#FF6B35" />
  <circle cx="74" cy="50" r="2.5" fill="#FF6B35" />
  
  <!-- Bandera en la torre izquierda -->
  <line x1="26" y1="28" x2="26" y2="18" stroke="white" stroke-width="1.5" opacity="0.95" />
  <path d="M 26 18 L 34 21 L 26 24 Z" fill="#FFC857" />
  
  <!-- Bandera en la torre derecha -->
  <line x1="74" y1="28" x2="74" y2="18" stroke="white" stroke-width="1.5" opacity="0.95" />
  <path d="M 74 18 L 82 21 L 74 24 Z" fill="#FFC857" />
</svg>
